# xmcd
# 
# Track frame offsets:
#     150
#     16857
#     33160
#     53527
#     79845
#     98880
#     120190
#     140950
#     165145
#     198157
#     224432
#     241107
#     259737
#     281072
#     298862
#     318462
# 
# Disc length: 4320
# 
# Revision: 9
# Processed by: cddbd v1.5.2PL0 Copyright (c) Steve Scherf et al.
# Submitted via: fre:ac v1.0.17
# 
DISCID=d910de10
DTITLE=ドリームズ・カム・トゥルー - THE SOUL  DISC 2
DYEAR=2000
DGENRE=JPop
TTITLE0=LOVE LOVE LOVE
TTITLE1=すき～ALBUM VERSION～
TTITLE2=愛してる 愛してた
TTITLE3=悲しいKiss
TTITLE4=三日月
TTITLE5=WINTER SONG ("雪のクリスマス"WORLDWIDE VERSION)
TTITLE6=The signs of LOVE～ETERNITY"DELICIOUS"VERSION+～
TTITLE7=未来予想図
TTITLE8=未来予想図II
TTITLE9=星空が映る海
TTITLE10=サンキュ.
TTITLE11=琥珀の月
TTITLE12=LOVE GOES ON…
TTITLE13=眼鏡越しの空
TTITLE14=時間旅行
TTITLE15=HAPPY HAPPY BIRTHDAY
EXTD=YEAR: 2000
EXTT0=
EXTT1=
EXTT2=
EXTT3=
EXTT4=
EXTT5=
EXTT6=
EXTT7=
EXTT8=
EXTT9=
EXTT10=
EXTT11=
EXTT12=
EXTT13=
EXTT14=
EXTT15=
PLAYORDER=
